<?xml version="1.0" encoding="UTF-8" standalone="no"?>
<svg
   id="LK_Logo_Gold_"
   data-name="LK Logo (Gold)"
   width="818.76355"
   height="345.50677"
   viewBox="0 0 63.965902 26.992717"
   version="1.1"
   sodipodi:docname="logo_title.svg"
   inkscape:version="1.2.2 (732a01da63, 2022-12-09)"
   xmlns:inkscape="http://www.inkscape.org/namespaces/inkscape"
   xmlns:sodipodi="http://sodipodi.sourceforge.net/DTD/sodipodi-0.dtd"
   xmlns="http://www.w3.org/2000/svg"
   xmlns:svg="http://www.w3.org/2000/svg">
  <sodipodi:namedview
     id="namedview24"
     pagecolor="#505050"
     bordercolor="#eeeeee"
     borderopacity="1"
     inkscape:showpageshadow="0"
     inkscape:pageopacity="0"
     inkscape:pagecheckerboard="0"
     inkscape:deskcolor="#505050"
     showgrid="false"
     inkscape:zoom="1.1816406"
     inkscape:cx="434.56529"
     inkscape:cy="170.10248"
     inkscape:window-width="3840"
     inkscape:window-height="2107"
     inkscape:window-x="-8"
     inkscape:window-y="-8"
     inkscape:window-maximized="1"
     inkscape:current-layer="LK_Logo_Gold_" />
  <defs
     id="defs6">
    <rect
       x="463.91714"
       y="87.42511"
       width="501.98935"
       height="332.77945"
       id="rect220" />
  </defs>
  <path
     id="Path_1"
     d="M 9.7219416,0.05809334 6.2311296,9.7570466 12.531224,10.771228 8.6191876,17.907007 17.385095,8.6651116 10.358847,7.6752706 12.158005,2.8227512 h 10.41226 V 15.481085 L 0,26.992718 25.526942,17.829253 V 0.05809334 Z"
     fill="#fcb912"
     style="stroke-width:0.676121" />
  <path
     d="m 27.948484,2.9065098 h 1.292631 V 9.957223 h 2.126966 v 1.175119 h -3.419597 z"
     style="font-weight:bold;font-size:96px;font-family:'Bebas Neue';-inkscape-font-specification:'Bebas Neue Bold';white-space:pre;fill:#fcb912;stroke-width:0.122408"
     id="path1002" />
  <path
     d="m 31.932146,2.9065098 h 1.292631 v 8.2258322 h -1.292631 z"
     style="font-weight:bold;font-size:96px;font-family:'Bebas Neue';-inkscape-font-specification:'Bebas Neue Bold';white-space:pre;fill:#fcb912;stroke-width:0.122408"
     id="path1004" />
  <path
     d="m 36.103824,6.5493784 h 1.809684 v 2.608764 q 0,0.9988516 -0.49355,1.5394056 -0.481799,0.528804 -1.433645,0.528804 -0.951847,0 -1.445397,-0.528804 -0.481798,-0.540554 -0.481798,-1.5394056 V 4.8807095 q 0,-0.998851 0.481798,-1.5276545 0.49355,-0.5405547 1.445397,-0.5405547 0.951846,0 1.433645,0.5405547 0.49355,0.5288035 0.49355,1.5276545 V 5.6797904 H 36.691384 V 4.7984512 q 0,-0.4465452 -0.188019,-0.622813 -0.176268,-0.188019 -0.481799,-0.188019 -0.305531,0 -0.49355,0.188019 -0.176268,0.1762678 -0.176268,0.622813 v 4.4419495 q 0,0.4465453 0.176268,0.6228133 0.188019,0.176268 0.49355,0.176268 0.305531,0 0.481799,-0.176268 0.188019,-0.176268 0.188019,-0.6228133 V 7.7244973 h -0.58756 z"
     style="font-weight:bold;font-size:96px;font-family:'Bebas Neue';-inkscape-font-specification:'Bebas Neue Bold';white-space:pre;fill:#fcb912;stroke-width:0.122408"
     id="path1006" />
  <path
     d="m 40.040465,11.132342 h -1.29263 V 2.9065098 h 1.29263 v 3.5253567 h 1.468899 V 2.9065098 h 1.316133 V 11.132342 H 41.509364 V 7.6069854 h -1.468899 z"
     style="font-weight:bold;font-size:96px;font-family:'Bebas Neue';-inkscape-font-specification:'Bebas Neue Bold';white-space:pre;fill:#fcb912;stroke-width:0.122408"
     id="path1008" />
  <path
     d="m 43.389554,2.9065098 h 3.995405 V 4.0816287 H 46.033572 V 11.132342 H 44.740941 V 4.0816287 h -1.351387 z"
     style="font-weight:bold;font-size:96px;font-family:'Bebas Neue';-inkscape-font-specification:'Bebas Neue Bold';white-space:pre;fill:#fcb912;stroke-width:0.122408"
     id="path1010" />
  <path
     d="M 49.100643,5.1744893 V 11.132342 H 47.937276 V 2.9065098 H 49.55894 L 50.886824,7.830258 V 2.9065098 h 1.151617 v 8.2258322 h -1.327885 z"
     style="font-weight:bold;font-size:96px;font-family:'Bebas Neue';-inkscape-font-specification:'Bebas Neue Bold';white-space:pre;fill:#fcb912;stroke-width:0.122408"
     id="path1012" />
  <path
     d="m 52.966784,2.9065098 h 1.292631 v 8.2258322 h -1.292631 z"
     style="font-weight:bold;font-size:96px;font-family:'Bebas Neue';-inkscape-font-specification:'Bebas Neue Bold';white-space:pre;fill:#fcb912;stroke-width:0.122408"
     id="path1014" />
  <path
     d="M 56.351134,5.1744893 V 11.132342 H 55.187767 V 2.9065098 h 1.621664 L 58.137315,7.830258 V 2.9065098 h 1.151617 v 8.2258322 h -1.327885 z"
     style="font-weight:bold;font-size:96px;font-family:'Bebas Neue';-inkscape-font-specification:'Bebas Neue Bold';white-space:pre;fill:#fcb912;stroke-width:0.122408"
     id="path1016" />
  <path
     d="m 62.156222,6.5493784 h 1.809683 v 2.608764 q 0,0.9988516 -0.49355,1.5394056 -0.481799,0.528804 -1.433645,0.528804 -0.951846,0 -1.445396,-0.528804 -0.481799,-0.540554 -0.481799,-1.5394056 V 4.8807095 q 0,-0.998851 0.481799,-1.5276545 0.49355,-0.5405547 1.445396,-0.5405547 0.951846,0 1.433645,0.5405547 0.49355,0.5288035 0.49355,1.5276545 V 5.6797904 H 62.743781 V 4.7984512 q 0,-0.4465452 -0.188019,-0.622813 -0.176268,-0.188019 -0.481799,-0.188019 -0.305531,0 -0.49355,0.188019 -0.176267,0.1762678 -0.176267,0.622813 v 4.4419495 q 0,0.4465453 0.176267,0.6228133 0.188019,0.176268 0.49355,0.176268 0.305531,0 0.481799,-0.176268 0.188019,-0.176268 0.188019,-0.6228133 V 7.7244973 h -0.587559 z"
     style="font-weight:bold;font-size:96px;font-family:'Bebas Neue';-inkscape-font-specification:'Bebas Neue Bold';white-space:pre;fill:#fcb912;stroke-width:0.122408"
     id="path1018" />
  <path
     d="m 27.572446,14.752922 h 3.995405 v 1.175119 h -1.351387 v 7.050713 h -1.292631 v -7.050713 h -1.351387 z"
     style="font-weight:bold;font-size:96px;font-family:'Bebas Neue';-inkscape-font-specification:'Bebas Neue Bold';white-space:pre;fill:#fcb912;stroke-width:0.122408"
     id="path1020" />
  <path
     d="m 33.42455,18.219523 h 1.774429 v 1.175118 H 33.42455 v 2.408994 h 2.232726 v 1.175119 h -3.525357 v -8.225832 h 3.525357 v 1.175119 H 33.42455 Z"
     style="font-weight:bold;font-size:96px;font-family:'Bebas Neue';-inkscape-font-specification:'Bebas Neue Bold';white-space:pre;fill:#fcb912;stroke-width:0.122408"
     id="path1022" />
  <path
     d="m 39.194384,20.593263 0.881339,-5.840341 h 1.797932 v 8.225832 h -1.222124 v -5.899097 l -0.89309,5.899097 h -1.222124 l -0.963598,-5.816838 v 5.816838 h -1.128114 v -8.225832 h 1.797932 z"
     style="font-weight:bold;font-size:96px;font-family:'Bebas Neue';-inkscape-font-specification:'Bebas Neue Bold';white-space:pre;fill:#fcb912;stroke-width:0.122408"
     id="path1024" />
  <path
     d="m 44.717446,14.752922 q 0.975349,0 1.445396,0.517052 0.481799,0.517052 0.481799,1.515903 v 1.069359 q 0,0.998851 -0.481799,1.515903 -0.470047,0.517052 -1.445396,0.517052 h -0.611062 v 3.090563 h -1.292631 v -8.225832 z m -0.611062,1.175119 v 2.785031 h 0.611062 q 0.305531,0 0.470048,-0.164516 0.164516,-0.164517 0.164516,-0.611062 v -1.233875 q 0,-0.446545 -0.164516,-0.611062 -0.164517,-0.164516 -0.470048,-0.164516 z"
     style="font-weight:bold;font-size:96px;font-family:'Bebas Neue';-inkscape-font-specification:'Bebas Neue Bold';white-space:pre;fill:#fcb912;stroke-width:0.122408"
     id="path1026" />
  <path
     d="m 47.302708,14.752922 h 1.29263 v 7.050713 h 2.126966 v 1.175119 h -3.419596 z"
     style="font-weight:bold;font-size:96px;font-family:'Bebas Neue';-inkscape-font-specification:'Bebas Neue Bold';white-space:pre;fill:#fcb912;stroke-width:0.122408"
     id="path1028" />
  <path
     d="m 55.469793,22.978754 h -1.304382 l -0.223273,-1.492401 h -1.58641 l -0.223273,1.492401 h -1.18687 l 1.316133,-8.225832 h 1.891941 z M 52.520244,20.36999 h 1.245626 l -0.622813,-4.159921 z"
     style="font-weight:bold;font-size:96px;font-family:'Bebas Neue';-inkscape-font-specification:'Bebas Neue Bold';white-space:pre;fill:#fcb912;stroke-width:0.122408"
     id="path1030" />
  <path
     d="m 55.69306,14.752922 h 3.995405 v 1.175119 h -1.351387 v 7.050713 H 57.044447 V 15.928041 H 55.69306 Z"
     style="font-weight:bold;font-size:96px;font-family:'Bebas Neue';-inkscape-font-specification:'Bebas Neue Bold';white-space:pre;fill:#fcb912;stroke-width:0.122408"
     id="path1032" />
  <path
     d="m 61.545162,18.219523 h 1.77443 v 1.175118 h -1.77443 v 2.408994 h 2.232726 v 1.175119 h -3.525356 v -8.225832 h 3.525356 v 1.175119 h -2.232726 z"
     style="font-weight:bold;font-size:96px;font-family:'Bebas Neue';-inkscape-font-specification:'Bebas Neue Bold';white-space:pre;fill:#fcb912;stroke-width:0.122408"
     id="path1034" />
</svg>
